<svg xmlns="http://www.w3.org/2000/svg">
    <symbol  viewbox="0 0 894 270" id="ce">
        <path class="logo-pri" fill="#67c52a" d="M337.38 51.43v24.4c-2.1-2.8-4.7-4.9-7.8-6.4-3.2-1.5-6.5-2.2-10-2.2-6.2 0-11.2 2.1-15.1 6.2-3.9 4.2-5.8 9.3-5.8 15.5s2 11.3 5.9 15.3 9 6 15.3 6c3.3 0 6.5-.7 9.7-2.2 3.1-1.5 5.7-3.5 7.9-6.1v24.4c-7.9 2.4-13.9 3.6-18 3.6-11.1 0-20.9-3.8-29.4-11.5-8.4-7.5-12.6-17.4-12.6-29.6 0-11.2 3.8-20.8 11.5-28.7 3.9-3.9 8.4-7 13.7-9.3 5.3-2.2 10.6-3.4 16.1-3.4 6 .1 12.2 1.4 18.6 4zm38.4.6c6.6-3.4 13.6-5 21.2-5 7.5 0 14.6 1.7 21.2 5 6.6 3.4 11.9 8.2 16 14.4s6.1 13.2 6.1 20.9c0 12.7-4.1 23-12.2 31.1s-18.5 12.1-31.1 12.1-23-4-31.1-12.1-12.2-18.4-12.2-31.1c0-7.7 2-14.6 6.1-20.9s9.4-11.1 16-14.4zm36.8 20.9c-4.4-4.2-9.6-6.2-15.6-6.2s-11.2 2.1-15.6 6.2c-4.4 4.2-6.5 9-6.5 14.4 0 6.6 2.1 12.2 6.4 16.7s9.5 6.7 15.7 6.7 11.4-2.2 15.7-6.7 6.4-10 6.4-16.7c0-5.4-2.1-10.2-6.5-14.4zm40.3 54.9l13.3-78.3h20l15.9 41.9 16.8-41.9h20.3l11.8 78.3h-20.4l-5.7-45.1h-.2l-18.8 45.1h-8.1l-18-45.1h-.2l-6.5 45.1zm115.8 0v-78.3h31.2c8.8 0 15.7 2.1 20.8 6.4s7.6 10.7 7.6 19.4c0 17.7-9.2 26.6-27.7 26.6h-11.5v26h-20.4zm20.4-61.9v19.5h3.4c1.9 0 3.4 0 4.4-.1 1 0 2.3-.2 3.8-.6 1.6-.3 2.7-.8 3.5-1.5.8-.6 1.4-1.6 2-2.8s.9-2.8.9-4.7-.3-3.5-.8-4.8c-.6-1.3-1.2-2.3-2-3s-1.9-1.2-3.4-1.5-2.8-.5-3.8-.6c-1.1-.1-2.6-.1-4.6-.1h-3.4zm76.3-16.4v78.3h-20.4v-78.3zm42.6 0v61.1h24.4v17.2h-44.8v-78.3zm83.8 17.3h-24.2v13.1h23v17.2h-23v13.5h24.2v17.2h-44.6v-78.3h44.6zm62.2 29l24.6 32.1h-25.3l-19.2-30.1h-.2v30.1h-20.5v-78.3h30.4c8.2 0 14.7 2 19.7 6s7.5 10 7.5 18.1c0 5.6-1.5 10.5-4.5 14.5-2.9 4.1-7.1 6.6-12.5 7.6zm-20.2-30.7v19.5h2c9.4 0 14.1-3.3 14.1-9.8s-4.7-9.8-14.1-9.8h-2zM228.18 192.43c-1.1-2.1-1.1-4.6 0-6.6 1.4-2.5 2.6-5 3.8-7.6.8-1.9-.5-4-2.6-4h-22.5c-2.3 0-4.5 1.2-5.7 3.1-2.9 4.4-6.3 8.7-10.1 12.5-14.5 14.5-33.7 22.4-54.1 22.4-20.5 0-39.7-8-54.1-22.4-14.6-14.4-22.5-33.6-22.5-54.1s8-39.7 22.4-54.1c14.5-14.5 33.7-22.4 54.1-22.4 20.5 0 39.7 8 54.1 22.4 3.9 3.9 7.2 8.1 10.1 12.5 1.3 1.9 3.4 3.1 5.7 3.1h22.6c2.1 0 3.4-2.1 2.6-4-1.2-2.6-2.4-5.1-3.8-7.6-1.1-2.1-1.1-4.6 0-6.6l7.6-13.8c1.5-2.7 1-6-1.2-8.2l-19.1-19.1c-2.2-2.2-5.5-2.6-8.2-1.2l-13.9 7.7c-2.1 1.1-4.6 1.1-6.6 0-6.6-3.6-13.6-6.5-20.8-8.6-2.3-.7-4.1-2.4-4.7-4.7l-4.4-15.2c-.9-2.9-3.5-5-6.6-5h-27c-3.1 0-5.8 2-6.6 5l-4.4 15.2c-.7 2.3-2.4 4-4.7 4.7-7.2 2.1-14.2 5-20.8 8.6-2.1 1.1-4.6 1.2-6.6 0l-13.9-7.7c-2.7-1.5-6-1-8.2 1.2l-19.1 19.1c-2.2 2.2-2.6 5.5-1.2 8.2l7.7 13.9c1.1 2.1 1.1 4.6 0 6.6-3.6 6.6-6.5 13.6-8.6 20.8-.7 2.3-2.4 4.1-4.7 4.7l-15.2 4.4c-2.9.9-5 3.5-5 6.6v27c0 3.1 2 5.8 5 6.6l15.2 4.4c2.3.7 4 2.4 4.7 4.7 2.1 7.2 5 14.2 8.6 20.8 1.1 2.1 1.2 4.6 0 6.6l-7.7 13.9c-1.5 2.7-1 6 1.2 8.2l19.1 19.1c2.2 2.2 5.5 2.6 8.2 1.2l13.9-7.7c2.1-1.1 4.6-1.1 6.6 0 6.6 3.6 13.6 6.5 20.8 8.6 2.3.7 4.1 2.4 4.7 4.7l4.4 15.2c.9 2.9 3.5 5 6.6 5h27c3.1 0 5.8-2 6.6-5l4.4-15.2c.7-2.3 2.4-4 4.7-4.7 7.2-2.1 14.2-5 20.8-8.6 2.1-1.1 4.6-1.2 6.6 0l13.9 7.7c2.7 1.5 6 1 8.2-1.2l19.1-19.1c2.2-2.2 2.6-5.5 1.2-8.2z"/>
        <path class="logo-sec" fill="#3c3c3f" d="M322.08 161.13h-24.1v13h22.8v17.1h-22.8v13.5h24.1v17.1h-44.3v-77.9h44.3zm44.6 19.2l-24.9-36.3h24.9l11.9 20.1 11.9-20.1h24.9l-24.9 36.3 28.8 41.6h-24.4l-16.3-25.4-17.9 25.4h-24.5zm67 41.6v-77.9h31c8.7 0 15.6 2.1 20.7 6.4 5.1 4.2 7.6 10.7 7.6 19.3 0 17.6-9.2 26.4-27.6 26.4h-11.5v25.8zm20.3-61.6v19.4h3.4c1.9 0 3.4 0 4.4-.1 1 0 2.3-.2 3.8-.6 1.5-.3 2.7-.8 3.5-1.4s1.4-1.5 2-2.8c.6-1.2.9-2.8.9-4.6 0-1.9-.3-3.5-.8-4.8-.6-1.3-1.2-2.3-2-2.9-.8-.7-1.9-1.2-3.4-1.5s-2.8-.5-3.8-.6c-1.1-.1-2.6-.1-4.6-.1zm75.6-16.3v60.7h24.3v17.1h-44.5v-77.9h20.2zm56.5 2.4c6.5-3.3 13.6-5 21.1-5s14.5 1.7 21.1 5c6.5 3.3 11.8 8.1 15.9 14.3s6.1 13.1 6.1 20.8c0 12.6-4 22.9-12.1 30.9s-18.4 12-30.9 12-22.8-4-30.9-12-12.1-18.3-12.1-30.9c0-7.6 2-14.6 6.1-20.8 3.8-6.2 9.1-10.9 15.7-14.3zm36.5 20.8c-4.3-4.1-9.5-6.2-15.5-6.2s-11.2 2.1-15.5 6.2-6.5 8.9-6.5 14.4c0 6.6 2.1 12.1 6.4 16.6 4.3 4.4 9.5 6.7 15.6 6.7s11.3-2.2 15.6-6.7c4.3-4.4 6.4-10 6.4-16.6.1-5.4-2.1-10.2-6.5-14.4zm86.3 22.8l24.5 31.9h-25.2l-19.1-30h-.2v30h-20.2v-77.9h30.3c8.1 0 14.7 2 19.6 6 5 4 7.4 10 7.4 18 0 5.6-1.5 10.4-4.5 14.5-3.1 4-7.3 6.5-12.6 7.5zm-20.1-30.5v19.4h2c9.4 0 14-3.2 14-9.7s-4.7-9.7-14-9.7zm103.1 1.6h-24.1v13h22.8v17.1h-22.8v13.5h24.1v17.1h-44.3v-77.9h44.3zm61.8 28.9l24.5 31.9h-25.2l-19.1-30h-.2v30h-20.3v-77.9h30.3c8.1 0 14.7 2 19.6 6 5 4 7.4 10 7.4 18 0 5.6-1.5 10.4-4.5 14.5-2.9 4-7.1 6.5-12.5 7.5zm-20-30.5v19.4h2c9.4 0 14-3.2 14-9.7s-4.7-9.7-14-9.7zM91.08 96.83h92.7v17.2h-92.7zm0 30.6h76.4v17.2h-76.4zm0 30.6h92.7v17.2h-92.7z"/>
    </symbol>

    <symbol id="firefox"
       viewBox="0 0 87.418564 81.96698">
      <defs
         id="defs978">
        <linearGradient
           gradientTransform="translate(3.7,-0.0040855)"
           gradientUnits="userSpaceOnUse"
           y2="74.468002"
           x2="6.447"
           y1="12.393"
           x1="70.786003"
           id="a">
          <stop
             id="stop834"
             stop-color="#fff44f"
             offset=".048" />
          <stop
             id="stop836"
             stop-color="#ffe847"
             offset=".111" />
          <stop
             id="stop838"
             stop-color="#ffc830"
             offset=".225" />
          <stop
             id="stop840"
             stop-color="#ff980e"
             offset=".368" />
          <stop
             id="stop842"
             stop-color="#ff8b16"
             offset=".401" />
          <stop
             id="stop844"
             stop-color="#ff672a"
             offset=".462" />
          <stop
             id="stop846"
             stop-color="#ff3647"
             offset=".534" />
          <stop
             id="stop848"
             stop-color="#e31587"
             offset=".705" />
        </linearGradient>
        <radialGradient
           gradientUnits="userSpaceOnUse"
           gradientTransform="translate(7978.7,8523.9959)"
           r="80.796997"
           cy="-8515.1211"
           cx="-7907.187"
           id="b">
          <stop
             id="stop851"
             stop-color="#ffbd4f"
             offset=".129" />
          <stop
             id="stop853"
             stop-color="#ffac31"
             offset=".186" />
          <stop
             id="stop855"
             stop-color="#ff9d17"
             offset=".247" />
          <stop
             id="stop857"
             stop-color="#ff980e"
             offset=".283" />
          <stop
             id="stop859"
             stop-color="#ff563b"
             offset=".403" />
          <stop
             id="stop861"
             stop-color="#ff3750"
             offset=".467" />
          <stop
             id="stop863"
             stop-color="#f5156c"
             offset=".71" />
          <stop
             id="stop865"
             stop-color="#eb0878"
             offset=".782" />
          <stop
             id="stop867"
             stop-color="#e50080"
             offset=".86" />
        </radialGradient>
        <radialGradient
           gradientUnits="userSpaceOnUse"
           gradientTransform="translate(7978.7,8523.9959)"
           r="80.796997"
           cy="-8482.0889"
           cx="-7936.7109"
           id="c">
          <stop
             id="stop870"
             stop-color="#960e18"
             offset=".3" />
          <stop
             id="stop872"
             stop-opacity=".74"
             stop-color="#b11927"
             offset=".351" />
          <stop
             id="stop874"
             stop-opacity=".343"
             stop-color="#db293d"
             offset=".435" />
          <stop
             id="stop876"
             stop-opacity=".094"
             stop-color="#f5334b"
             offset=".497" />
          <stop
             id="stop878"
             stop-opacity="0"
             stop-color="#ff3750"
             offset=".53" />
        </radialGradient>
        <radialGradient
           gradientUnits="userSpaceOnUse"
           gradientTransform="translate(7978.7,8523.9959)"
           r="58.534"
           cy="-8533.457"
           cx="-7926.9702"
           id="d">
          <stop
             id="stop881"
             stop-color="#fff44f"
             offset=".132" />
          <stop
             id="stop883"
             stop-color="#ffdc3e"
             offset=".252" />
          <stop
             id="stop885"
             stop-color="#ff9d12"
             offset=".506" />
          <stop
             id="stop887"
             stop-color="#ff980e"
             offset=".526" />
        </radialGradient>
        <radialGradient
           gradientUnits="userSpaceOnUse"
           gradientTransform="translate(7978.7,8523.9959)"
           r="38.471001"
           cy="-8460.9844"
           cx="-7945.6479"
           id="e">
          <stop
             id="stop890"
             stop-color="#3a8ee6"
             offset=".353" />
          <stop
             id="stop892"
             stop-color="#5c79f0"
             offset=".472" />
          <stop
             id="stop894"
             stop-color="#9059ff"
             offset=".669" />
          <stop
             id="stop896"
             stop-color="#c139e6"
             offset="1" />
        </radialGradient>
        <radialGradient
           gradientUnits="userSpaceOnUse"
           gradientTransform="matrix(0.972,-0.235,0.275,1.138,10095.002,7833.7939)"
           r="20.396999"
           cy="-8491.5459"
           cx="-7935.6201"
           id="f">
          <stop
             id="stop899"
             stop-opacity="0"
             stop-color="#9059ff"
             offset=".206" />
          <stop
             id="stop901"
             stop-opacity=".064"
             stop-color="#8c4ff3"
             offset=".278" />
          <stop
             id="stop903"
             stop-opacity=".45"
             stop-color="#7716a8"
             offset=".747" />
          <stop
             id="stop905"
             stop-opacity=".6"
             stop-color="#6e008b"
             offset=".975" />
        </radialGradient>
        <radialGradient
           gradientUnits="userSpaceOnUse"
           gradientTransform="translate(7978.7,8523.9959)"
           r="27.676001"
           cy="-8518.4268"
           cx="-7937.731"
           id="g">
          <stop
             id="stop908"
             stop-color="#ffe226"
             offset="0" />
          <stop
             id="stop910"
             stop-color="#ffdb27"
             offset=".121" />
          <stop
             id="stop912"
             stop-color="#ffc82a"
             offset=".295" />
          <stop
             id="stop914"
             stop-color="#ffa930"
             offset=".502" />
          <stop
             id="stop916"
             stop-color="#ff7e37"
             offset=".732" />
          <stop
             id="stop918"
             stop-color="#ff7139"
             offset=".792" />
        </radialGradient>
        <radialGradient
           gradientUnits="userSpaceOnUse"
           gradientTransform="translate(7978.7,8523.9959)"
           r="118.081"
           cy="-8535.9814"
           cx="-7915.9771"
           id="h">
          <stop
             id="stop921"
             stop-color="#fff44f"
             offset=".113" />
          <stop
             id="stop923"
             stop-color="#ff980e"
             offset=".456" />
          <stop
             id="stop925"
             stop-color="#ff5634"
             offset=".622" />
          <stop
             id="stop927"
             stop-color="#ff3647"
             offset=".716" />
          <stop
             id="stop929"
             stop-color="#e31587"
             offset=".904" />
        </radialGradient>
        <radialGradient
           gradientUnits="userSpaceOnUse"
           gradientTransform="matrix(0.105,0.995,-0.653,0.069,-4680.304,8470.1869)"
           r="86.499001"
           cy="-8522.8594"
           cx="-7927.165"
           id="i">
          <stop
             id="stop932"
             stop-color="#fff44f"
             offset="0" />
          <stop
             id="stop934"
             stop-color="#ffe847"
             offset=".06" />
          <stop
             id="stop936"
             stop-color="#ffc830"
             offset=".168" />
          <stop
             id="stop938"
             stop-color="#ff980e"
             offset=".304" />
          <stop
             id="stop940"
             stop-color="#ff8b16"
             offset=".356" />
          <stop
             id="stop942"
             stop-color="#ff672a"
             offset=".455" />
          <stop
             id="stop944"
             stop-color="#ff3647"
             offset=".57" />
          <stop
             id="stop946"
             stop-color="#e31587"
             offset=".737" />
        </radialGradient>
        <radialGradient
           gradientUnits="userSpaceOnUse"
           gradientTransform="translate(7978.7,8523.9959)"
           r="73.720001"
           cy="-8508.1758"
           cx="-7938.3828"
           id="j">
          <stop
             id="stop949"
             stop-color="#fff44f"
             offset=".137" />
          <stop
             id="stop951"
             stop-color="#ff980e"
             offset=".48" />
          <stop
             id="stop953"
             stop-color="#ff5634"
             offset=".592" />
          <stop
             id="stop955"
             stop-color="#ff3647"
             offset=".655" />
          <stop
             id="stop957"
             stop-color="#e31587"
             offset=".904" />
        </radialGradient>
        <radialGradient
           gradientUnits="userSpaceOnUse"
           gradientTransform="translate(7978.7,8523.9959)"
           r="80.685997"
           cy="-8503.8613"
           cx="-7918.9229"
           id="k">
          <stop
             id="stop960"
             stop-color="#fff44f"
             offset=".094" />
          <stop
             id="stop962"
             stop-color="#ffe141"
             offset=".231" />
          <stop
             id="stop964"
             stop-color="#ffaf1e"
             offset=".509" />
          <stop
             id="stop966"
             stop-color="#ff980e"
             offset=".626" />
        </radialGradient>
        <linearGradient
           gradientTransform="translate(3.7,-0.0040855)"
           gradientUnits="userSpaceOnUse"
           y2="66.806"
           x2="15.267"
           y1="12.061"
           x1="70.013"
           id="l">
          <stop
             id="stop969"
             stop-opacity=".8"
             stop-color="#fff44f"
             offset=".167" />
          <stop
             id="stop971"
             stop-opacity=".634"
             stop-color="#fff44f"
             offset=".266" />
          <stop
             id="stop973"
             stop-opacity=".217"
             stop-color="#fff44f"
             offset=".489" />
          <stop
             id="stop975"
             stop-opacity="0"
             stop-color="#fff44f"
             offset=".6" />
        </linearGradient>
      </defs>
      <path
         style="fill:url(#a)"
         id="path980"
         d="m 79.616,26.826915 c -1.684,-4.052 -5.1,-8.427 -7.775,-9.81 a 40.266,40.266 0 0 1 3.925,11.764 l 0.007,0.065 c -4.382,-10.925 -11.813,-15.33 -17.882,-24.9220005 -0.307,-0.485 -0.614,-0.971 -0.913,-1.484 -0.171,-0.293 -0.308,-0.557 -0.427,-0.8 a 7.053,7.053 0 0 1 -0.578,-1.535 0.1,0.1 0 0 0 -0.088,-0.1 0.138,0.138 0 0 0 -0.073,0 c -0.005,0 -0.013,0.009 -0.019,0.011 -0.006,0.002 -0.019,0.011 -0.028,0.015 l 0.015,-0.026 c -9.735,5.7 -13.038,16.2520005 -13.342,21.5300005 a 19.387,19.387 0 0 0 -10.666,4.111 11.587,11.587 0 0 0 -1,-0.758 17.968,17.968 0 0 1 -0.109,-9.473 28.705,28.705 0 0 0 -9.329,7.21 h -0.018 c -1.536,-1.947 -1.428,-8.367 -1.34,-9.708 a 6.928,6.928 0 0 0 -1.294,0.687 28.225,28.225 0 0 0 -3.788,3.245 33.845,33.845 0 0 0 -3.623,4.347 v 0.006 -0.007 a 32.733,32.733 0 0 0 -5.2,11.743 l -0.052,0.256 c -0.073,0.341 -0.336,2.049 -0.381,2.42 0,0.029 -0.006,0.056 -0.009,0.085 A 36.937,36.937 0 0 0 5,41.041915 v 0.2 a 38.759,38.759 0 0 0 76.954,6.554 c 0.065,-0.5 0.118,-0.995 0.176,-1.5 a 39.857,39.857 0 0 0 -2.514,-19.469 z m -44.67,30.338 c 0.181,0.087 0.351,0.181 0.537,0.264 l 0.027,0.017 q -0.282,-0.135 -0.564,-0.281 z m 8.878,-23.376 z m 31.952,-4.934 v -0.037 l 0.007,0.041 z" />
      <path
         style="fill:url(#b)"
         id="path982"
         d="m 79.616,26.826915 c -1.684,-4.052 -5.1,-8.427 -7.775,-9.81 a 40.266,40.266 0 0 1 3.925,11.764 v 0.037 l 0.007,0.041 a 35.1,35.1 0 0 1 -1.206,26.158 c -4.442,9.531 -15.194,19.3 -32.024,18.825 -18.185,-0.515 -34.2,-14.009 -37.194,-31.683 -0.545,-2.787 0,-4.2 0.274,-6.465 A 28.876,28.876 0 0 0 5,41.041915 v 0.2 a 38.759,38.759 0 0 0 76.954,6.554 c 0.065,-0.5 0.118,-0.995 0.176,-1.5 a 39.857,39.857 0 0 0 -2.514,-19.469 z" />
      <path
         style="fill:url(#c)"
         id="path984"
         d="m 79.616,26.826915 c -1.684,-4.052 -5.1,-8.427 -7.775,-9.81 a 40.266,40.266 0 0 1 3.925,11.764 v 0.037 l 0.007,0.041 a 35.1,35.1 0 0 1 -1.206,26.158 c -4.442,9.531 -15.194,19.3 -32.024,18.825 -18.185,-0.515 -34.2,-14.009 -37.194,-31.683 -0.545,-2.787 0,-4.2 0.274,-6.465 A 28.876,28.876 0 0 0 5,41.041915 v 0.2 a 38.759,38.759 0 0 0 76.954,6.554 c 0.065,-0.5 0.118,-0.995 0.176,-1.5 a 39.857,39.857 0 0 0 -2.514,-19.469 z" />
      <path
         style="fill:url(#d)"
         id="path986"
         d="m 60.782,31.382915 c 0.084,0.059 0.162,0.118 0.241,0.177 a 21.1,21.1 0 0 0 -3.6,-4.695 C 45.377,14.816915 54.266,0.7419145 55.765,0.0269145 l 0.015,-0.022 c -9.735,5.7 -13.038,16.2520005 -13.342,21.5300005 0.452,-0.031 0.9,-0.069 1.362,-0.069 a 19.56,19.56 0 0 1 16.982,9.917 z" />
      <path
         style="fill:url(#e)"
         id="path988"
         d="m 43.825,33.788915 c -0.064,0.964 -3.47,4.289 -4.661,4.289 -11.021,0 -12.81,6.667 -12.81,6.667 0.488,5.614 4.4,10.238 9.129,12.684 0.216,0.112 0.435,0.213 0.654,0.312 q 0.569,0.252 1.138,0.466 a 17.235,17.235 0 0 0 5.043,0.973 c 19.317,0.906 23.059,-23.1 9.119,-30.066 a 13.38,13.38 0 0 1 9.345,2.269 19.56,19.56 0 0 0 -16.982,-9.917 c -0.46,0 -0.91,0.038 -1.362,0.069 a 19.387,19.387 0 0 0 -10.666,4.111 c 0.591,0.5 1.258,1.168 2.663,2.553 2.63,2.591 9.375,5.275 9.39,5.59 z" />
      <path
         style="fill:url(#f)"
         id="path990"
         d="m 43.825,33.788915 c -0.064,0.964 -3.47,4.289 -4.661,4.289 -11.021,0 -12.81,6.667 -12.81,6.667 0.488,5.614 4.4,10.238 9.129,12.684 0.216,0.112 0.435,0.213 0.654,0.312 q 0.569,0.252 1.138,0.466 a 17.235,17.235 0 0 0 5.043,0.973 c 19.317,0.906 23.059,-23.1 9.119,-30.066 a 13.38,13.38 0 0 1 9.345,2.269 19.56,19.56 0 0 0 -16.982,-9.917 c -0.46,0 -0.91,0.038 -1.362,0.069 a 19.387,19.387 0 0 0 -10.666,4.111 c 0.591,0.5 1.258,1.168 2.663,2.553 2.63,2.591 9.375,5.275 9.39,5.59 z" />
      <path
         style="fill:url(#g)"
         id="path992"
         d="m 29.965,24.356915 c 0.314,0.2 0.573,0.374 0.8,0.531 a 17.968,17.968 0 0 1 -0.109,-9.473 28.705,28.705 0 0 0 -9.329,7.21 c 0.189,-0.005 5.811,-0.106 8.638,1.732 z" />
      <path
         style="fill:url(#h)"
         id="path994"
         d="m 5.354,42.158915 c 2.991,17.674 19.009,31.168 37.194,31.683 16.83,0.476 27.582,-9.294 32.024,-18.825 a 35.1,35.1 0 0 0 1.206,-26.158 v -0.037 c 0,-0.029 -0.006,-0.046 0,-0.037 l 0.007,0.065 c 1.375,8.977 -3.191,17.674 -10.329,23.555 l -0.022,0.05 c -13.908,11.327 -27.218,6.834 -29.912,5 q -0.282,-0.135 -0.564,-0.281 c -8.109,-3.876 -11.459,-11.264 -10.741,-17.6 a 9.953,9.953 0 0 1 -9.181,-5.775 14.618,14.618 0 0 1 14.249,-0.572 19.3,19.3 0 0 0 14.552,0.572 c -0.015,-0.315 -6.76,-3 -9.39,-5.59 -1.405,-1.385 -2.072,-2.052 -2.663,-2.553 a 11.587,11.587 0 0 0 -1,-0.758 c -0.23,-0.157 -0.489,-0.327 -0.8,-0.531 -2.827,-1.838 -8.449,-1.737 -8.635,-1.732 h -0.018 c -1.536,-1.947 -1.428,-8.367 -1.34,-9.708 a 6.928,6.928 0 0 0 -1.294,0.687 28.225,28.225 0 0 0 -3.788,3.245 33.845,33.845 0 0 0 -3.638,4.337 v 0.006 -0.007 a 32.733,32.733 0 0 0 -5.2,11.743 c -0.019,0.079 -1.396,6.099 -0.717,9.221 z" />
      <path
         style="fill:url(#i)"
         id="path996"
         d="m 57.425,26.864915 a 21.1,21.1 0 0 1 3.6,4.7 c 0.213,0.161 0.412,0.321 0.581,0.476 8.787,8.1 4.183,19.55 3.84,20.365 7.138,-5.881 11.7,-14.578 10.329,-23.555 -4.384,-10.93 -11.815,-15.335 -17.884,-24.9270005 -0.307,-0.485 -0.614,-0.971 -0.913,-1.484 -0.171,-0.293 -0.308,-0.557 -0.427,-0.8 a 7.053,7.053 0 0 1 -0.578,-1.535 0.1,0.1 0 0 0 -0.088,-0.1 0.138,0.138 0 0 0 -0.073,0 c -0.005,0 -0.013,0.009 -0.019,0.011 -0.006,0.002 -0.019,0.011 -0.028,0.015 -1.499,0.711 -10.388,14.7860005 1.66,26.8340005 z" />
      <path
         style="fill:url(#j)"
         id="path998"
         d="m 61.6,32.035915 c -0.169,-0.155 -0.368,-0.315 -0.581,-0.476 -0.079,-0.059 -0.157,-0.118 -0.241,-0.177 a 13.38,13.38 0 0 0 -9.345,-2.269 c 13.94,6.97 10.2,30.972 -9.119,30.066 a 17.235,17.235 0 0 1 -5.043,-0.973 q -0.569,-0.213 -1.138,-0.466 c -0.219,-0.1 -0.438,-0.2 -0.654,-0.312 l 0.027,0.017 c 2.694,1.839 16,6.332 29.912,-5 l 0.022,-0.05 c 0.347,-0.81 4.951,-12.263 -3.84,-20.36 z" />
      <path
         style="fill:url(#k)"
         id="path1000"
         d="m 26.354,44.744915 c 0,0 1.789,-6.667 12.81,-6.667 1.191,0 4.6,-3.325 4.661,-4.289 a 19.3,19.3 0 0 1 -14.552,-0.572 14.618,14.618 0 0 0 -14.249,0.572 9.953,9.953 0 0 0 9.181,5.775 c -0.718,6.337 2.632,13.725 10.741,17.6 0.181,0.087 0.351,0.181 0.537,0.264 -4.733,-2.445 -8.641,-7.069 -9.129,-12.683 z" />
      <path
         style="fill:url(#l)"
         id="path1002"
         d="m 79.616,26.826915 c -1.684,-4.052 -5.1,-8.427 -7.775,-9.81 a 40.266,40.266 0 0 1 3.925,11.764 l 0.007,0.065 c -4.382,-10.925 -11.813,-15.33 -17.882,-24.9220005 -0.307,-0.485 -0.614,-0.971 -0.913,-1.484 -0.171,-0.293 -0.308,-0.557 -0.427,-0.8 a 7.053,7.053 0 0 1 -0.578,-1.535 0.1,0.1 0 0 0 -0.088,-0.1 0.138,0.138 0 0 0 -0.073,0 c -0.005,0 -0.013,0.009 -0.019,0.011 -0.006,0.002 -0.019,0.011 -0.028,0.015 l 0.015,-0.026 c -9.735,5.7 -13.038,16.2520005 -13.342,21.5300005 0.452,-0.031 0.9,-0.069 1.362,-0.069 a 19.56,19.56 0 0 1 16.982,9.917 13.38,13.38 0 0 0 -9.345,-2.269 c 13.94,6.97 10.2,30.972 -9.119,30.066 a 17.235,17.235 0 0 1 -5.043,-0.973 q -0.569,-0.213 -1.138,-0.466 c -0.219,-0.1 -0.438,-0.2 -0.654,-0.312 l 0.027,0.017 q -0.282,-0.135 -0.564,-0.281 c 0.181,0.087 0.351,0.181 0.537,0.264 -4.733,-2.446 -8.641,-7.07 -9.129,-12.684 0,0 1.789,-6.667 12.81,-6.667 1.191,0 4.6,-3.325 4.661,-4.289 -0.015,-0.315 -6.76,-3 -9.39,-5.59 -1.405,-1.385 -2.072,-2.052 -2.663,-2.553 a 11.587,11.587 0 0 0 -1,-0.758 17.968,17.968 0 0 1 -0.109,-9.473 28.705,28.705 0 0 0 -9.329,7.21 h -0.018 c -1.536,-1.947 -1.428,-8.367 -1.34,-9.708 a 6.928,6.928 0 0 0 -1.294,0.687 28.225,28.225 0 0 0 -3.788,3.245 33.845,33.845 0 0 0 -3.623,4.347 v 0.006 -0.007 a 32.733,32.733 0 0 0 -5.2,11.743 l -0.052,0.256 c -0.073,0.341 -0.4,2.073 -0.447,2.445 0,0.028 0,-0.029 0,0 A 45.094,45.094 0 0 0 5,41.041915 v 0.2 a 38.759,38.759 0 0 0 76.954,6.554 c 0.065,-0.5 0.118,-0.995 0.176,-1.5 a 39.857,39.857 0 0 0 -2.514,-19.469 z m -3.845,1.991 0.007,0.041 z" />
     </symbol>

      <use xlink:href="#ce" />
      <use xlink:href="#firefox" transform="scale(.53) translate(-35,22)" />
    </svg>